<mxfile host="app.diagrams.net" agent="Mozilla/5.0 (Macintosh; Intel Mac OS X 10_15_7) AppleWebKit/537.36 (KHTML, like Gecko) Chrome/137.0.0.0 Safari/537.36" version="27.1.6">
  <diagram name="Page-1" id="f2tVQkW7_RaRO9CSzFZp">
    <mxGraphModel dx="2066" dy="1126" grid="1" gridSize="10" guides="1" tooltips="1" connect="1" arrows="1" fold="1" page="1" pageScale="1" pageWidth="827" pageHeight="1169" math="0" shadow="0">
      <root>
        <mxCell id="0" />
        <mxCell id="1" parent="0" />
        <mxCell id="XLqsPzXyugZ8nJZszqtV-1" value="Seller&lt;div&gt;Onboarding&lt;/div&gt;" style="rounded=0;whiteSpace=wrap;html=1;" parent="1" vertex="1">
          <mxGeometry x="150" y="365" width="110" height="60" as="geometry" />
        </mxCell>
        <mxCell id="XLqsPzXyugZ8nJZszqtV-2" value="Catalog&lt;div&gt;Management&lt;/div&gt;" style="rounded=0;whiteSpace=wrap;html=1;fillColor=#fff2cc;strokeColor=#d6b656;" parent="1" vertex="1">
          <mxGeometry x="280" y="365" width="110" height="60" as="geometry" />
        </mxCell>
        <mxCell id="XLqsPzXyugZ8nJZszqtV-3" value="Order&lt;div&gt;Fulfilment&lt;/div&gt;" style="rounded=0;whiteSpace=wrap;html=1;fillColor=#fff2cc;strokeColor=#d6b656;" parent="1" vertex="1">
          <mxGeometry x="410" y="365" width="110" height="60" as="geometry" />
        </mxCell>
        <mxCell id="XLqsPzXyugZ8nJZszqtV-5" value="ONDC Adapter" style="rounded=0;whiteSpace=wrap;html=1;fillColor=#fff2cc;strokeColor=#d6b656;" parent="1" vertex="1">
          <mxGeometry x="150" y="445" width="370" height="60" as="geometry" />
        </mxCell>
        <mxCell id="XLqsPzXyugZ8nJZszqtV-6" value="ONDC Gateway" style="rounded=0;whiteSpace=wrap;html=1;" parent="1" vertex="1">
          <mxGeometry x="150" y="525" width="370" height="60" as="geometry" />
        </mxCell>
        <mxCell id="XLqsPzXyugZ8nJZszqtV-9" value="Settlement" style="rounded=0;whiteSpace=wrap;html=1;fillColor=#fff2cc;strokeColor=#d6b656;" parent="1" vertex="1">
          <mxGeometry x="540" y="365" width="110" height="60" as="geometry" />
        </mxCell>
        <mxCell id="XLqsPzXyugZ8nJZszqtV-10" value="????" style="rounded=0;whiteSpace=wrap;html=1;fillColor=#fff2cc;strokeColor=#d6b656;" parent="1" vertex="1">
          <mxGeometry x="540" y="445" width="110" height="60" as="geometry" />
        </mxCell>
        <mxCell id="73xhuk2qt8xr3xl9aOXT-1" value="View" style="text;html=1;align=center;verticalAlign=middle;whiteSpace=wrap;rounded=0;" vertex="1" parent="1">
          <mxGeometry x="30" y="380" width="60" height="30" as="geometry" />
        </mxCell>
        <mxCell id="73xhuk2qt8xr3xl9aOXT-2" value="Orchestration" style="text;html=1;align=center;verticalAlign=middle;whiteSpace=wrap;rounded=0;" vertex="1" parent="1">
          <mxGeometry x="50" y="460" width="60" height="30" as="geometry" />
        </mxCell>
        <mxCell id="73xhuk2qt8xr3xl9aOXT-3" value="Base" style="text;html=1;align=center;verticalAlign=middle;whiteSpace=wrap;rounded=0;" vertex="1" parent="1">
          <mxGeometry x="30" y="540" width="60" height="30" as="geometry" />
        </mxCell>
        <mxCell id="73xhuk2qt8xr3xl9aOXT-5" style="edgeStyle=orthogonalEdgeStyle;rounded=0;orthogonalLoop=1;jettySize=auto;html=1;" edge="1" parent="1" source="73xhuk2qt8xr3xl9aOXT-4">
          <mxGeometry relative="1" as="geometry">
            <mxPoint x="735" y="355" as="targetPoint" />
          </mxGeometry>
        </mxCell>
        <mxCell id="73xhuk2qt8xr3xl9aOXT-6" style="edgeStyle=orthogonalEdgeStyle;rounded=0;orthogonalLoop=1;jettySize=auto;html=1;" edge="1" parent="1" source="73xhuk2qt8xr3xl9aOXT-4">
          <mxGeometry relative="1" as="geometry">
            <mxPoint x="735" y="515" as="targetPoint" />
          </mxGeometry>
        </mxCell>
        <mxCell id="73xhuk2qt8xr3xl9aOXT-4" value="" style="shape=image;verticalLabelPosition=bottom;labelBackgroundColor=default;verticalAlign=top;aspect=fixed;imageAspect=0;image=https://frappe.io/files/frappe.png;" vertex="1" parent="1">
          <mxGeometry x="700" y="424.35" width="70" height="20.65" as="geometry" />
        </mxCell>
      </root>
    </mxGraphModel>
  </diagram>
</mxfile>
